<svg width="26" height="21" viewBox="0 0 26 21" fill="none" xmlns="http://www.w3.org/2000/svg">
<g filter="url(#filter0_d)">
<path fill-rule="evenodd" clip-rule="evenodd" d="M10.0622 17.9998C9.68265 17.9998 9.31965 17.8383 9.05977 17.5536L2.37315 10.2166C1.85203 9.64715 1.8809 8.7504 2.43365 8.2149C2.98778 7.6794 3.85815 7.70773 4.37653 8.27723L10.0484 14.4978L21.6094 1.46165C22.1236 0.882231 22.9926 0.843981 23.5536 1.37098C24.1133 1.89798 24.1518 2.79473 23.6403 3.37131L11.0769 17.538C10.8198 17.8298 10.454 17.997 10.0718 17.9998H10.0622Z" fill="#231F20"/>
<mask id="mask0" style="mask-type:alpha" maskUnits="userSpaceOnUse" x="2" y="1" width="22" height="17">
<path fill-rule="evenodd" clip-rule="evenodd" d="M10.0622 17.9998C9.68265 17.9998 9.31965 17.8383 9.05977 17.5536L2.37315 10.2166C1.85203 9.64715 1.8809 8.7504 2.43365 8.2149C2.98778 7.6794 3.85815 7.70773 4.37653 8.27723L10.0484 14.4978L21.6094 1.46165C22.1236 0.882231 22.9926 0.843981 23.5536 1.37098C24.1133 1.89798 24.1518 2.79473 23.6403 3.37131L11.0769 17.538C10.8198 17.8298 10.454 17.997 10.0718 17.9998H10.0622Z" fill="white"/>
</mask>
<g mask="url(#mask0)">
<rect x="2" y="1" width="22" height="17" fill="#FD0000"/>
</g>
</g>
<defs>
<filter id="filter0_d" x="0" y="0" width="26" height="21" filterUnits="userSpaceOnUse" color-interpolation-filters="sRGB">
<feFlood flood-opacity="0" result="BackgroundImageFix"/>
<feColorMatrix in="SourceAlpha" type="matrix" values="0 0 0 0 0 0 0 0 0 0 0 0 0 0 0 0 0 0 127 0" result="hardAlpha"/>
<feOffset dy="1"/>
<feGaussianBlur stdDeviation="1"/>
<feComposite in2="hardAlpha" operator="out"/>
<feColorMatrix type="matrix" values="0 0 0 0 0 0 0 0 0 0 0 0 0 0 0 0 0 0 0.65 0"/>
<feBlend mode="normal" in2="BackgroundImageFix" result="effect1_dropShadow"/>
<feBlend mode="normal" in="SourceGraphic" in2="effect1_dropShadow" result="shape"/>
</filter>
</defs>
</svg>
