<svg width="19" height="19" viewBox="0 0 19 19" fill="none" xmlns="http://www.w3.org/2000/svg">
<path fill-rule="evenodd" clip-rule="evenodd" d="M9.5 0C14.7505 0 19 4.24946 19 9.5C19 14.7505 14.7505 19 9.5 19C4.24946 19 0 14.7505 0 9.5C0 4.24946 4.24946 0 9.5 0ZM9.5 1.47097C13.9333 1.47097 17.529 5.06667 17.529 9.5C17.529 13.9333 13.9333 17.529 9.5 17.529C5.06667 17.529 1.47097 13.9333 1.47097 9.5C1.47097 5.06667 5.06667 1.47097 9.5 1.47097Z" fill="#FD0000"/>
<path fill-rule="evenodd" clip-rule="evenodd" d="M9.5 2C13.6455 2 17 5.36449 17 9.5C17 13.6455 13.6355 17 9.5 17C5.35447 17 2 13.6355 2 9.5C2 5.35447 5.36449 2 9.5 2Z" fill="#3E2BC5"/>
<path fill-rule="evenodd" clip-rule="evenodd" d="M8.7125 8.7124L10.2875 8.7124H13.3156C13.6906 8.7124 14 9.02178 14 9.39678V9.60303C14 9.97803 13.6906 10.2874 13.3156 10.2874H10.2875H8.7125H5.68438C5.30938 10.2874 5 9.97803 5 9.60303V9.39678C5 9.02178 5.30938 8.7124 5.68438 8.7124L8.7125 8.7124Z" fill="white"/>
</svg>
