<svg width="20" height="20" viewBox="0 0 20 20" fill="none" xmlns="http://www.w3.org/2000/svg">
<g id="Icon/Outline/phone-call">
<path id="Mask" fill-rule="evenodd" clip-rule="evenodd" d="M15.4005 18C8.01149 18 2.00049 11.988 2.00049 4.6C2.00049 3.166 3.16649 2 4.60049 2C4.70949 2 4.81749 2.007 4.92749 2.021L5.98849 6.642C5.85719 6.71031 5.71667 6.7838 5.57962 6.85547L5.45049 6.923C4.58849 7.373 3.90849 7.729 4.26549 8.514C5.44149 11.86 8.14049 14.56 11.4465 15.72C12.2888 16.0575 12.6156 15.4325 13.0675 14.5684L13.0735 14.557C13.1254 14.4586 13.1789 14.356 13.2319 14.2543C13.2748 14.172 13.3173 14.0903 13.3585 14.012L17.9785 15.072C17.9935 15.18 18.0005 15.289 18.0005 15.4C18.0005 16.834 16.8345 18 15.4005 18ZM19.7515 13.908C19.6385 13.583 19.3665 13.339 19.0305 13.262L13.0665 11.893C12.7375 11.819 12.3935 11.912 12.1505 12.146C12.0075 12.282 12.0045 12.286 11.3545 13.527C9.22449 12.557 7.47949 10.818 6.47549 8.644C7.71449 7.995 7.71749 7.992 7.85449 7.85C8.08849 7.606 8.18249 7.262 8.10749 6.934L6.73849 0.97C6.66149 0.634 6.41649 0.361 6.09149 0.248C5.85349 0.166 5.60849 0.104 5.36649 0.065C5.11749 0.022 4.86049 0 4.60049 0C2.06349 0 0.000488281 2.063 0.000488281 4.6C0.000488281 13.092 6.90849 20 15.4005 20C17.9365 20 20.0005 17.937 20.0005 15.4C20.0005 15.142 19.9775 14.887 19.9355 14.639C19.8955 14.389 19.8335 14.144 19.7515 13.908ZM11.0001 6C12.6541 6 14.0001 7.346 14.0001 9C14.0001 9.553 14.4471 10 15.0001 10C15.5531 10 16.0001 9.553 16.0001 9C16.0001 6.243 13.7571 4 11.0001 4C10.4481 4 10.0001 4.447 10.0001 5C10.0001 5.553 10.4481 6 11.0001 6ZM18.0001 9C18.0001 5.141 14.8591 2 11.0001 2C10.4481 2 10.0001 1.553 10.0001 1C10.0001 0.447 10.4481 0 11.0001 0C15.9631 0 20.0001 4.037 20.0001 9C20.0001 9.553 19.5531 10 19.0001 10C18.4471 10 18.0001 9.553 18.0001 9Z" fill="#3E2BC5"/>
<mask id="mask0" style="mask-type:alpha" maskUnits="userSpaceOnUse" x="0" y="0" width="21" height="20">
<path id="Mask_2" fill-rule="evenodd" clip-rule="evenodd" d="M15.4005 18C8.01149 18 2.00049 11.988 2.00049 4.6C2.00049 3.166 3.16649 2 4.60049 2C4.70949 2 4.81749 2.007 4.92749 2.021L5.98849 6.642C5.85719 6.71031 5.71667 6.7838 5.57962 6.85547L5.45049 6.923C4.58849 7.373 3.90849 7.729 4.26549 8.514C5.44149 11.86 8.14049 14.56 11.4465 15.72C12.2888 16.0575 12.6156 15.4325 13.0675 14.5684L13.0735 14.557C13.1254 14.4586 13.1789 14.356 13.2319 14.2543C13.2748 14.172 13.3173 14.0903 13.3585 14.012L17.9785 15.072C17.9935 15.18 18.0005 15.289 18.0005 15.4C18.0005 16.834 16.8345 18 15.4005 18ZM19.7515 13.908C19.6385 13.583 19.3665 13.339 19.0305 13.262L13.0665 11.893C12.7375 11.819 12.3935 11.912 12.1505 12.146C12.0075 12.282 12.0045 12.286 11.3545 13.527C9.22449 12.557 7.47949 10.818 6.47549 8.644C7.71449 7.995 7.71749 7.992 7.85449 7.85C8.08849 7.606 8.18249 7.262 8.10749 6.934L6.73849 0.97C6.66149 0.634 6.41649 0.361 6.09149 0.248C5.85349 0.166 5.60849 0.104 5.36649 0.065C5.11749 0.022 4.86049 0 4.60049 0C2.06349 0 0.000488281 2.063 0.000488281 4.6C0.000488281 13.092 6.90849 20 15.4005 20C17.9365 20 20.0005 17.937 20.0005 15.4C20.0005 15.142 19.9775 14.887 19.9355 14.639C19.8955 14.389 19.8335 14.144 19.7515 13.908ZM11.0001 6C12.6541 6 14.0001 7.346 14.0001 9C14.0001 9.553 14.4471 10 15.0001 10C15.5531 10 16.0001 9.553 16.0001 9C16.0001 6.243 13.7571 4 11.0001 4C10.4481 4 10.0001 4.447 10.0001 5C10.0001 5.553 10.4481 6 11.0001 6ZM18.0001 9C18.0001 5.141 14.8591 2 11.0001 2C10.4481 2 10.0001 1.553 10.0001 1C10.0001 0.447 10.4481 0 11.0001 0C15.9631 0 20.0001 4.037 20.0001 9C20.0001 9.553 19.5531 10 19.0001 10C18.4471 10 18.0001 9.553 18.0001 9Z" fill="white"/>
</mask>
<g mask="url(#mask0)">
<g id="&#240;&#159;&#142;&#168; Color">
<rect id="Base" width="20" height="20" fill="#3E2BC5"/>
</g>
</g>
</g>
</svg>
