<svg width="19" height="19" viewBox="0 0 19 19" fill="none" xmlns="http://www.w3.org/2000/svg">
<path fill-rule="evenodd" clip-rule="evenodd" d="M9.5 0C14.7505 0 19 4.24946 19 9.5C19 14.7505 14.7505 19 9.5 19C4.24946 19 0 14.7505 0 9.5C0 4.24946 4.24946 0 9.5 0ZM9.5 1.47097C13.9333 1.47097 17.529 5.06667 17.529 9.5C17.529 13.9333 13.9333 17.529 9.5 17.529C5.06667 17.529 1.47097 13.9333 1.47097 9.5C1.47097 5.06667 5.06667 1.47097 9.5 1.47097Z" fill="#3E2BC5"/>
<path fill-rule="evenodd" clip-rule="evenodd" d="M9.5 2C13.6455 2 17 5.36449 17 9.5C17 13.6455 13.6355 17 9.5 17C5.35447 17 2 13.6355 2 9.5C2 5.35447 5.36449 2 9.5 2Z" fill="#3E2BC5"/>
<path fill-rule="evenodd" clip-rule="evenodd" d="M9.39688 5H9.60313C9.97813 5 10.2875 5.30938 10.2875 5.68438V8.7125H13.3156C13.6906 8.7125 14 9.02188 14 9.39688V9.60313C14 9.97813 13.6906 10.2875 13.3156 10.2875H10.2875V13.3156C10.2875 13.6906 9.97813 14 9.60313 14H9.39688C9.02188 14 8.7125 13.6906 8.7125 13.3156V10.2875H5.68438C5.30938 10.2875 5 9.97813 5 9.60313V9.39688C5 9.02188 5.30938 8.7125 5.68438 8.7125H8.7125V5.68438C8.7125 5.30938 9.02188 5 9.39688 5Z" fill="white"/>
</svg>
